The ENTIRE F1 Abu Dhabi Grand Prix from Practice,Qualifying,Race and Forum.

BBC Content.




Format                                   : MPEG-4
Format profile                           : Base Media
Codec ID                                 : isom
File size                                : 974 MiB
Duration                                 : 2h 50mn
Overall bit rate                         : 799 Kbps
Movie name                               : 2011: The Abu Dhabi Grand Prix
Album                                    : Formula 1
Album/Performer                          : BBC TV
Grouping                                 : Sport,Motorsport,Formula One
Performer                                : BBC One
Composer                                 : BBC iPlayer
Genre                                    : Sport
Recorded date                            : UTC 2011-11-13 12:15:00
Tagged date                              : UTC 2011-11-16 21:35:06
Writing application                      : Lavf53.4.0
Copyright                                : © 2011 British Broadcasting Corporation, all rights reserved
Cover                                    : Yes
Comment                                  : Coverage of the Abu Dhabi Grand Prix, the penultimate race of the 2011 season.
stik                                     : 10
©lyr                                     : Jake Humphrey introduces live coverage of the Abu Dhabi Grand Prix, the penultimate race of the 2011 season and the only day-night race on the Formula 1 calendar. Sebastian Vettel may have already sealed a second successive drivers' championship, but the German will be in no mood to let up at Yas Marina. The spectacular track, which cost 800 million pounds to construct, was the scene for Vettel's dramatic title win last year, when the German claimed maximum points to leapfrog Fernando Alonso in the standings. Vettel also won in Abu Dhabi in 2009, so will be looking to make it a hat-trick of wins. /  / EPISODE /   http://www.bbc.co.uk/iplayer/episode/b01772nq/Formula_1_2011_The_Abu_Dhabi_Grand_Prix/ /  / SERIES /   http://www.bbc.co.uk/programmes/b01772nq.html
desc                                     : Coverage of the Abu Dhabi Grand Prix, the penultimate race of the 2011 season.
tvsh                                     : Formula 1
tven                                     : b01772nq
tvnn                                     : BBC One

Video
ID                                       : 1
Format                                   : AVC
Format/Info                              : Advanced Video Codec
Format profile                           : Main@L3.0
Format settings, CABAC                   : Yes
Format settings, ReFrames                : 4 frames
Codec ID                                 : avc1
Codec ID/Info                            : Advanced Video Coding
Duration                                 : 2h 50mn
Bit rate mode                            : Constant
Bit rate                                 : 700 Kbps
Width                                    : 640 pixels
Height                                   : 360 pixels
Display aspect ratio                     : 16:9
Frame rate mode                          : Constant
Frame rate                               : 25.000 fps
Standard                                 : PAL
Color space                              : YUV
Chroma subsampling                       : 4:2:0
Bit depth                                : 8 bits
Scan type                                : Progressive
Bits/(Pixel*Frame)                       : 0.122
Stream size                              : 852 MiB (87%)

Audio
ID                                       : 2
Format                                   : AAC
Format/Info                              : Advanced Audio Codec
Format profile                           : HE-AAC / LC
Codec ID                                 : 40
Duration                                 : 2h 50mn
Bit rate mode                            : Constant
Bit rate                                 : 96.0 Kbps
Channel(s)                               : 2 channels
Channel positions                        : Front: L R
Sampling rate                            : 48.0 KHz / 24.0 KHz
Compression mode                         : Lossy
Stream size                              : 116 MiB (12%)

